<svg width="245" height="175" viewBox="0 0 245 175" fill="none" xmlns="http://www.w3.org/2000/svg">
<path d="M36.9 91.8C39.2333 91.4667 41.3833 91.3 43.35 91.3L42.85 79.65C42.05 81.0833 40.9167 83.3833 39.45 86.55C38.1833 89.25 37.3333 91 36.9 91.8ZM51.85 109.7C51.9833 110.2 51.85 110.683 51.45 111.15C51.05 111.583 50.5 111.933 49.8 112.2C49.1333 112.5 48.5 112.65 47.9 112.65C46.9333 112.65 46.3833 112.35 46.25 111.75C45.05 106.983 44.1667 101.317 43.6 94.75C40.6 94.7167 37.6167 95 34.65 95.6C31.5167 100.833 28.6 105.65 25.9 110.05C25.6333 110.517 25.0833 110.917 24.25 111.25C23.3833 111.55 22.5833 111.7 21.85 111.7C20.9167 111.7 20.45 111.45 20.45 110.95C20.45 110.75 20.5167 110.533 20.65 110.3C23.3167 105.633 25.7833 101.367 28.05 97.5L27.2 97.8C26.6667 98 26.1833 98.1 25.75 98.1C25.3167 98.1 24.9833 98 24.75 97.8C24.4833 97.6 24.35 97.35 24.35 97.05C24.35 96.7167 24.5167 96.3833 24.85 96.05C25.15 95.6833 25.6 95.3667 26.2 95.1C27.7667 94.4 29.1667 93.85 30.4 93.45C32.2 90.35 34.1167 86.8333 36.15 82.9C38.4833 78.4 40.45 74.8833 42.05 72.35C42.15 72.2167 42.2833 72.0833 42.45 71.95L42.4 71.7C42.4 71.1 42.8167 70.5667 43.65 70.1C44.5167 69.6 45.3833 69.35 46.25 69.35C47.3167 69.35 47.8667 69.75 47.9 70.55L48.05 73.9C48.35 81.9333 48.7333 88.7 49.2 94.2C49.7 99.6667 50.5833 104.833 51.85 109.7ZM79.4582 79.7C79.7582 79.3333 80.1915 79.05 80.7582 78.85C81.3249 78.65 81.8915 78.55 82.4582 78.55C82.9915 78.55 83.4249 78.65 83.7582 78.85C84.1249 79.0167 84.3082 79.2667 84.3082 79.6C84.3082 79.9 84.1582 80.25 83.8582 80.65C81.0915 84.3167 78.7749 88.2833 76.9082 92.55C75.0749 96.7833 73.4749 101.483 72.1082 106.65C71.9749 107.183 71.5582 107.65 70.8582 108.05C70.1582 108.417 69.4415 108.6 68.7082 108.6C68.1749 108.6 67.7249 108.483 67.3582 108.25C67.0249 108.017 66.8415 107.65 66.8082 107.15C66.5082 104.05 66.1249 99.5333 65.6582 93.6C62.7582 99.3333 60.5249 104.017 58.9582 107.65C58.8249 108.183 58.4082 108.65 57.7082 109.05C57.0415 109.417 56.3582 109.6 55.6582 109.6C55.2249 109.6 54.8249 109.5 54.4582 109.3C53.9582 109.133 53.7082 108.85 53.7082 108.45C53.7082 108.35 53.7415 108.2 53.8082 108C53.4415 103.9 52.9915 97.7167 52.4582 89.45L51.9582 82.1C51.9249 81.4667 52.2915 80.9167 53.0582 80.45C53.8249 79.9833 54.6415 79.75 55.5082 79.75C56.0082 79.75 56.4249 79.8667 56.7582 80.1C57.0915 80.3 57.2749 80.6167 57.3082 81.05L58.4082 97.7C60.3749 93.6333 62.5582 89.4833 64.9582 85.25C64.9915 84.6833 65.3915 84.1833 66.1582 83.75C66.9249 83.3167 67.7082 83.1 68.5082 83.1C69.1415 83.1 69.6082 83.25 69.9082 83.55C70.1749 83.7833 70.2915 84.0333 70.2582 84.3L70.3082 84.4C70.4749 86.3667 70.7582 89.6 71.1582 94.1C73.5249 88.4 76.2915 83.6 79.4582 79.7ZM83.3355 102.7C83.2689 103.1 83.2355 103.383 83.2355 103.55C83.2355 104.883 83.8855 105.55 85.1855 105.55C85.9522 105.55 86.8855 105.333 87.9855 104.9C88.9855 104.5 90.8355 103.65 93.5355 102.35C93.6022 101.517 93.6689 100.717 93.7355 99.95C93.8355 99.15 93.9189 98.4333 93.9855 97.8L94.3355 94.35C92.0355 95.45 90.3189 96.3167 89.1855 96.95C87.5189 97.9167 86.1855 98.8333 85.1855 99.7C84.1855 100.533 83.5689 101.533 83.3355 102.7ZM96.3355 79.15C97.8355 79.15 98.8355 79.5333 99.3355 80.3C99.8689 81.0333 100.136 82.1167 100.136 83.55L100.086 84.95C99.9522 87.3833 99.6522 90.95 99.1855 95.65C99.0855 96.3167 98.9689 97.4333 98.8355 99C98.7022 99.9667 98.5855 100.75 98.4855 101.35C98.8522 101.55 99.0355 101.817 99.0355 102.15C99.0355 102.383 98.9189 102.733 98.6855 103.2L98.4855 103.45L98.1855 103.75C97.9522 105.45 97.8355 106.9 97.8355 108.1C98.3022 108.367 98.5355 108.683 98.5355 109.05C98.5355 109.617 98.1189 110.217 97.2855 110.85C97.0522 111.017 96.7855 111.183 96.4855 111.35C96.2522 111.483 95.9189 111.6 95.4855 111.7C95.0855 111.8 94.6855 111.85 94.2855 111.85C93.0522 111.85 92.4855 111.4 92.5855 110.5L92.9855 106.3C88.5189 108.433 85.0855 109.5 82.6855 109.5C79.6522 109.5 78.1355 107.867 78.1355 104.6C78.1355 101.467 79.7522 98.8 82.9855 96.6C86.2522 94.4 90.1522 92.4167 94.6855 90.65C94.8189 89.35 94.9189 88.0333 94.9855 86.7C94.9855 86.4333 95.0022 86.1 95.0355 85.7C95.0689 85.3 95.0855 84.85 95.0855 84.35C95.0855 83.7167 95.0355 83.3 94.9355 83.1L94.7855 82.9H94.7355C94.2355 82.9 93.3022 83.5833 91.9355 84.95C90.7022 86.15 89.1689 87.95 87.3355 90.35C87.0689 90.7167 86.6189 91.0167 85.9855 91.25C85.3855 91.4833 84.7689 91.6 84.1355 91.6C83.6689 91.6 83.2689 91.5167 82.9355 91.35C82.6355 91.1833 82.4855 90.9333 82.4855 90.6C82.4855 90.3333 82.6189 89.9833 82.8855 89.55C87.4855 82.6167 91.9689 79.15 96.3355 79.15ZM108.371 105.85C109.004 106.35 109.821 106.6 110.821 106.6C111.987 106.6 113.471 106.217 115.271 105.45C116.337 99.2833 117.171 93.2167 117.771 87.25H117.671C115.871 87.25 114.221 87.8667 112.721 89.1C111.221 90.3333 109.971 91.8667 108.971 93.7C108.004 95.5333 107.337 97.35 106.971 99.15C106.804 99.9833 106.721 100.8 106.721 101.6C106.721 103.567 107.271 104.983 108.371 105.85ZM118.971 71.4C119.004 70.8 119.421 70.2833 120.221 69.85C121.021 69.3833 121.837 69.15 122.671 69.15C123.704 69.15 124.204 69.5333 124.171 70.3C123.604 81.3 122.404 92.65 120.571 104.35C121.104 104.617 121.371 104.967 121.371 105.4C121.371 105.9 120.971 106.383 120.171 106.85L119.871 108.7C119.737 109.333 119.254 109.883 118.421 110.35C117.621 110.783 116.821 111 116.021 111C115.521 111 115.121 110.9 114.821 110.7C114.521 110.467 114.421 110.133 114.521 109.7C114.521 109.533 114.537 109.417 114.571 109.35C112.437 110.017 110.671 110.35 109.271 110.35C107.737 110.35 106.354 110.017 105.121 109.35C103.887 108.717 102.987 107.8 102.421 106.6C101.854 105.4 101.571 104.05 101.571 102.55C101.571 102.017 101.637 101.283 101.771 100.35C102.237 97.65 103.237 95.05 104.771 92.55C106.304 90.05 108.237 88 110.571 86.4C112.904 84.8 115.421 83.95 118.121 83.85C118.521 79.2833 118.804 75.1333 118.971 71.4ZM153.582 103.45C154.748 102.583 155.632 101.617 156.232 100.55C156.865 99.45 157.182 98.35 157.182 97.25C157.182 96.1833 156.865 95.1667 156.232 94.2C155.598 93.2 154.648 92.3167 153.382 91.55C150.815 90.0167 147.998 89.25 144.932 89.25C142.332 89.25 139.882 89.8 137.582 90.9C136.782 94.7333 135.648 100.517 134.182 108.25V108.35C138.448 108.183 142.132 107.783 145.232 107.15C148.365 106.517 151.148 105.283 153.582 103.45ZM148.982 76.75C148.582 74.5833 147.265 73.5 145.032 73.5C143.965 73.5 142.732 73.75 141.332 74.25C140.698 76.85 139.815 80.75 138.682 85.95C141.248 85.3167 143.615 84.25 145.782 82.75C147.982 81.25 149.082 79.5333 149.082 77.6C149.082 77.4333 149.048 77.15 148.982 76.75ZM155.532 87.6C157.632 88.5333 159.282 89.75 160.482 91.25C161.715 92.75 162.332 94.4 162.332 96.2C162.332 97.9333 161.765 99.6333 160.632 101.3C157.965 105.267 153.982 108.05 148.682 109.65C143.415 111.25 137.665 112.05 131.432 112.05C129.765 112.05 128.182 112 126.682 111.9C125.915 111.867 125.532 111.633 125.532 111.2C125.532 110.733 125.932 110.183 126.732 109.55C127.565 108.917 128.265 108.567 128.832 108.5C130.765 98.1667 132.998 87.7 135.532 77.1C135.132 77.2 134.698 77.25 134.232 77.25C133.698 77.25 133.248 77.1833 132.882 77.05C132.548 76.9167 132.382 76.7 132.382 76.4C132.382 76.0333 132.682 75.5833 133.282 75.05C134.082 74.35 135.198 73.6 136.632 72.8C136.632 72.7 136.665 72.55 136.732 72.35C136.898 71.75 137.398 71.2333 138.232 70.8C139.098 70.3667 139.932 70.15 140.732 70.15C141.365 70.15 141.765 70.2833 141.932 70.55C143.765 70.05 145.382 69.8 146.782 69.8C150.415 69.8 152.765 71.2667 153.832 74.2C154.132 75 154.282 75.7833 154.282 76.55C154.282 78.25 153.648 79.8833 152.382 81.45C151.148 83.0167 149.498 84.45 147.432 85.75C150.332 85.85 153.032 86.4667 155.532 87.6ZM168.438 70.1C168.505 69.4667 168.938 68.9333 169.738 68.5C170.572 68.0333 171.388 67.8 172.188 67.8C172.688 67.8 173.072 67.9 173.338 68.1C173.605 68.3 173.722 68.6167 173.688 69.05C172.722 77.75 171.722 86.45 170.688 95.15L169.188 108.2C169.122 108.833 168.672 109.383 167.838 109.85C167.005 110.317 166.172 110.55 165.338 110.55C164.205 110.55 163.688 110.117 163.788 109.25L166.138 89.65C167.205 80.45 167.972 73.9333 168.438 70.1ZM191.532 92.7C191.532 89.1667 189.465 86.3833 185.332 84.35C184.299 85.2167 183.265 86.3667 182.232 87.8C180.965 89.6333 179.915 91.6833 179.082 93.95C178.749 94.85 178.432 96.0833 178.132 97.65C177.832 99.1833 177.682 100.617 177.682 101.95C177.682 103.317 177.865 104.417 178.232 105.25C178.632 106.05 179.265 106.45 180.132 106.45C180.832 106.45 181.649 106.167 182.582 105.6C185.149 104.1 187.282 102.233 188.982 100C190.682 97.7667 191.532 95.3333 191.532 92.7ZM192.932 83.65C194.132 84.7833 195.049 86.0667 195.682 87.5C196.349 88.9333 196.682 90.45 196.682 92.05C196.682 94.35 196.015 96.6833 194.682 99.05C193.782 100.65 192.465 102.333 190.732 104.1C188.999 105.867 187.065 107.367 184.932 108.6C182.832 109.8 180.815 110.4 178.882 110.4C177.682 110.4 176.549 110.133 175.482 109.6C173.215 108.367 172.082 106.15 172.082 102.95C172.082 100.65 172.599 98.1333 173.632 95.4C174.665 92.6333 175.765 90.3 176.932 88.4C179.765 83.9 182.749 81.0667 185.882 79.9C186.749 79.5667 187.682 79.4 188.682 79.4C189.849 79.4 190.832 79.7 191.632 80.3C192.432 80.8667 192.899 81.7667 193.032 83V83.2C193.032 83.3 192.999 83.45 192.932 83.65ZM205.161 104.9C206.528 103.067 207.711 101.133 208.711 99.1C209.578 97.4333 210.495 95.3667 211.461 92.9C212.428 90.4333 212.911 88.4 212.911 86.8C212.911 86.2667 212.845 85.85 212.711 85.55C211.711 85.6167 211.111 85.3167 210.911 84.65C210.678 83.8167 210.428 83.4 210.161 83.4C209.961 83.4 209.761 83.5333 209.561 83.8C209.361 84.0333 209.078 84.4667 208.711 85.1C208.245 85.8 207.745 86.7667 207.211 88C206.111 90.3333 205.211 92.6167 204.511 94.85C203.711 97.15 203.078 99.2333 202.611 101.1C202.145 102.967 201.911 104.75 201.911 106.45C201.911 107.183 201.961 107.9 202.061 108.6L203.111 107.5C203.745 106.767 204.428 105.9 205.161 104.9ZM215.711 81.3C216.711 81.7 217.428 82.2667 217.861 83C218.295 83.7333 218.511 84.6667 218.511 85.8C218.511 86.8667 218.245 88.7 217.711 91.3C216.245 98.1667 215.045 104.433 214.111 110.1C213.211 115.767 212.561 121.367 212.161 126.9C212.128 127.367 212.061 127.767 211.961 128.1C211.895 128.467 211.745 128.9 211.511 129.4C211.145 130.133 210.561 130.783 209.761 131.35C208.995 131.95 208.261 132.25 207.561 132.25C206.928 132.25 206.445 131.967 206.111 131.4L204.661 128.9C202.561 125.233 200.778 122.233 199.311 119.9C199.211 119.767 199.161 119.6 199.161 119.4C199.161 118.833 199.578 118.3 200.411 117.8C201.245 117.3 202.095 117.05 202.961 117.05C203.828 117.05 204.428 117.333 204.761 117.9C205.228 118.767 205.761 119.7 206.361 120.7L207.361 122.45C208.095 116.55 208.911 110.983 209.811 105.75C208.278 107.883 206.661 109.717 204.961 111.25C203.295 112.783 201.745 113.55 200.311 113.55C199.211 113.55 198.261 113.05 197.461 112.05C196.795 111.217 196.461 110.017 196.461 108.45C196.461 107.583 196.528 106.733 196.661 105.9C196.828 105.067 197.078 103.933 197.411 102.5L197.711 101.3C198.711 96.7667 200.195 92.35 202.161 88.05C203.095 86.0833 204.028 84.45 204.961 83.15C205.928 81.85 207.145 80.8667 208.611 80.2C209.511 79.7667 210.511 79.55 211.611 79.55C213.245 79.55 214.495 80.1 215.361 81.2L215.711 81.3Z" fill="#09232E" fill-opacity="0.98"/>
<path d="M224.835 54.9626C226.875 61.449 225.817 68.834 221.897 76.7712C217.973 84.7153 211.278 92.9907 202.477 101.004C184.877 117.027 159.295 131.598 132.265 140.099C105.247 148.596 79.0535 150.284 58.606 146.281C38.0295 142.254 24.0302 132.671 19.8298 119.316C15.6295 105.96 21.624 90.0899 36.191 75.0095C50.6667 60.0237 73.1107 46.4149 100.129 37.9177C127.155 29.418 156.487 26.7775 180.107 29.8962C191.919 31.4559 202.155 34.4366 209.928 38.7251C217.695 43.0104 222.795 48.475 224.835 54.9626Z" stroke="url(#paint0_linear_101_20)" stroke-width="6"/>
<defs>
<linearGradient id="paint0_linear_101_20" x1="105.347" y1="33.1317" x2="139.283" y2="141.037" gradientUnits="userSpaceOnUse">
<stop stop-color="#7B59DE"/>
<stop offset="0.204613" stop-color="#7A88B9" stop-opacity="0.800596"/>
<stop offset="1" stop-color="#070D23" stop-opacity="0"/>
</linearGradient>
</defs>
</svg>
